# This file uses centimeters as units for non-parametric coordinates.

mtllib HomeAppleWallpaper_Walls.mtl
g default
v -10.813269 -0.305993 8.257520
v -10.813269 -1.142743 8.078704
v -10.813269 -3.570406 7.559902
v -10.813269 -1.700077 7.959597
v -10.813269 -1.329191 -2.927570
v -10.813269 0.541138 -2.527873
v -10.813269 1.098472 -2.408768
v -10.813269 1.935221 -2.229951
v -10.813269 -3.029799 5.030200
v -10.813269 -1.159469 5.429898
v -10.813269 -0.602135 5.549001
v -10.813269 0.234614 5.727820
v -10.813269 -4.640033 7.331320
v -10.813269 -4.099426 4.801617
v -10.813269 -2.398818 -3.156154
v -10.813269 1.111194 -5.187999
v -10.813269 -1.828762 -5.816279
v -10.813269 -0.759135 -5.587695
v -10.813269 1.668528 -5.068893
v -10.813269 2.505277 -4.890078
v -10.813269 2.505277 -4.700617
v 6.235775 2.505277 -4.700617
v 0.618091 2.505277 -4.700617
v -5.157705 2.505277 -4.700617
v 6.235775 1.668528 -5.068893
v -10.813269 1.668528 -5.068893
v 6.235775 -0.759135 -5.587695
v -10.813269 -0.759135 -5.587695
v -10.813269 1.111194 -5.187999
v -9.675291 1.668528 -5.068893
v -9.716014 2.505277 -4.700617
v -7.997507 1.668528 -5.068893
v -7.956784 2.505277 -4.700617
v 6.235775 2.226361 -4.949683
v 0.637087 2.244937 -4.945713
v -5.176701 2.244937 -4.945713
v -7.970359 2.226361 -4.949683
v -9.702439 2.226361 -4.949683
v -10.813269 2.226361 -4.949683
v 6.235775 1.947444 -5.009288
v -7.983933 1.947444 -5.009288
v -9.688865 1.947444 -5.009288
v -10.813269 1.947444 -5.009288
v 1.468267 -0.806914 -5.597905
v 1.451981 1.979297 -5.002481
v 1.435695 2.242287 -4.946280
v 1.419410 2.505277 -4.700617
v 2.530386 -0.796269 -5.595631
v 2.517729 1.972201 -5.003998
v 2.505071 2.238739 -4.947038
v 2.492413 2.505277 -4.700617
v 6.235775 1.420150 -5.121973
v 6.235775 0.855588 -5.242622
v 6.235775 -0.175352 -5.462938
v 2.530386 -0.194627 -5.467057
v 1.468267 -0.200152 -5.468238
v -11.937965 1.668528 -5.068893
v -11.937965 1.111194 -5.187999
v 7.360472 -0.759135 -5.587695
v 7.360472 -1.773050 -5.804373
v -11.937965 -0.759135 -5.587695
v -9.292371 1.613801 -5.091401
v -8.380427 1.613801 -5.091401
v -10.813269 -1.773050 -5.804373
v -9.616900 -1.773035 -5.804370
v -9.616900 -0.759135 -5.587695
v 0.878910 -1.773050 -5.804373
v 1.643025 -1.773050 -5.804373
v -5.230778 -1.773050 -5.804373
v 0.675078 -0.814863 -5.599604
v -5.214691 -0.814863 -5.599604
v 0.656082 1.984596 -5.001349
v 0.675078 1.724256 -5.056984
v 0.675077 -0.204278 -5.469119
v -9.616900 1.166922 -5.176089
v -8.055899 -0.759135 -5.587695
v -8.055912 -1.773050 -5.804373
v -8.055899 -0.238236 -5.476377
v -5.214691 -0.293964 -5.488286
v -5.214691 1.111194 -5.187999
v -5.214691 1.724256 -5.056984
v -5.195696 1.984596 -5.001349
v -9.292371 1.267110 -5.165491
v -8.055899 1.166922 -5.176089
v -8.380427 1.267110 -5.165491
v -8.055899 0.069399 -5.410634
v -5.214691 0.013671 -5.422544
v 2.666211 -1.773050 -5.804373
v 6.235775 -1.773050 -5.804373
v 2.530386 1.705663 -5.060957
v 2.530386 1.449686 -5.115661
v 1.585411 1.620723 -5.039459
v 1.585411 1.419514 -5.082458
v 2.413242 1.412915 -5.083869
v 2.413242 1.612427 -5.041233
v 0.675078 1.464475 -5.112500
v 1.468267 1.458153 -5.113852
v 1.468267 1.716307 -5.058682
v 2.530386 0.867852 -5.240001
v 1.585411 0.962166 -5.180196
v 2.413242 0.959426 -5.180781
v 0.675077 0.873993 -5.238689
v 1.468267 0.871368 -5.239249
v 1.468267 1.709768 -5.028084
v 2.530386 1.699123 -5.030357
v 2.530386 0.861313 -5.209402
v 1.468267 0.864829 -5.208651
v 1.523675 1.665506 -5.007705
v 2.474978 1.655972 -5.009742
v 2.474978 0.905575 -5.170106
v 1.523675 0.908724 -5.169433
v 1.585411 1.616189 -5.018244
v 2.413242 1.607893 -5.020017
v 2.413242 0.954892 -5.159567
v 1.585411 0.957632 -5.158980
v 6.235775 1.935221 -2.229951
v 6.235775 1.098472 -2.408768
v 6.235775 -1.329191 -2.927570
v 6.235775 2.505277 -4.890077
v 6.235775 1.668528 -5.068893
v 6.235775 -0.759135 -5.587695
v 6.235775 -1.828763 -5.816279
v 6.235775 -2.398819 -3.156153
v 6.235775 2.740322 -5.989939
v 6.235775 1.903573 -6.168755
v 6.235775 -0.524090 -6.687557
v 6.235775 -0.602135 5.549003
v 6.235775 0.234614 5.727820
v 6.235775 -3.029799 5.030200
v 6.235775 -4.099426 4.801617
v 6.235775 -0.305993 8.257519
v 6.235775 -1.142743 8.078704
v 6.235775 -3.570406 7.559902
v 6.235775 0.234614 5.727820
v 6.235775 -0.602135 5.549003
v 6.235775 -3.029799 5.030200
v 6.235775 -4.099426 4.801617
v 6.235775 -4.640033 7.331318
vt 0.753504 1.438750
vt 0.637983 1.440072
vt 0.637938 1.436745
vt 0.753459 1.435421
vt 0.499849 0.528152
vt 0.511055 0.527992
vt 0.511059 0.528315
vt 0.499854 0.528475
vt 0.510480 0.528737
vt 0.500444 0.528881
vt 0.511260 0.543103
vt 0.502527 0.543240
vt 0.502524 0.543016
vt 0.511257 0.542879
vt 0.502543 0.544450
vt 0.511277 0.544337
vt 0.511280 0.544561
vt 0.502546 0.544674
vt 0.516231 0.550593
vt 0.516202 0.548470
vt 0.524935 0.548282
vt 0.524963 0.550386
vt 0.516136 0.543645
vt 0.524870 0.543497
vt 0.511097 0.531133
vt 0.499893 0.531398
vt 0.500472 0.530923
vt 0.510507 0.530686
vt 0.501116 0.530394
vt 0.509848 0.530187
vt 0.501083 0.532882
vt 0.511119 0.532712
vt 0.510475 0.533241
vt 0.501741 0.533389
vt -1.420381 -1.062118
vt -1.414572 -0.494818
vt -2.756254 -0.481080
vt -2.762063 -1.048380
vt 2.800192 -1.105329
vt 2.806000 -0.538030
vt -1.404417 0.497153
vt -2.746096 0.510888
vt 4.211226 -1.118978
vt 4.217034 -0.551677
vt 2.816158 0.453939
vt -1.401388 0.792745
vt -2.743071 0.806483
vt 4.227191 0.440292
vt 2.819185 0.749533
vt -1.396847 1.236533
vt -2.738527 1.250271
vt 4.230217 0.735886
vt 2.823729 1.193320
vt 4.234762 1.179672
vt 0.063243 3.176736
vt 0.068813 3.620512
vt -1.342165 3.639024
vt -1.347734 3.195247
vt 4.283706 3.123755
vt 4.289276 3.567531
vt -1.925485 3.646347
vt -1.931055 3.202570
vt 0.047080 1.889206
vt -1.363898 1.907719
vt 4.267543 1.836225
vt -1.947218 1.915041
vt 0.039959 1.321921
vt -1.371020 1.340434
vt 4.260421 1.268941
vt -2.493974 4.416870
vt -3.061260 4.423992
vt -3.078102 3.082345
vt -2.510815 3.075224
vt -4.348789 4.440154
vt -4.365632 3.098508
vt -4.792565 4.445725
vt -4.809406 3.104080
vt -4.665075 -1.476334
vt -4.667041 -1.620991
vt -4.076841 -1.629015
vt -4.081916 -1.484263
vt -4.670971 -1.910046
vt -4.050096 -1.889579
vt -3.206677 -1.640846
vt -3.197670 -1.496284
vt -4.663109 -1.331677
vt -4.086988 -1.339509
vt -5.250354 -1.613061
vt -5.254283 -1.902116
vt -4.684158 -2.880072
vt -4.063676 -2.888509
vt -3.881074 -1.839906
vt -3.878631 -1.660100
vt -3.405661 -1.666529
vt -1.763005 -1.631564
vt -1.751318 -1.496676
vt -3.188664 -1.351722
vt -4.661141 -1.187020
vt -4.092062 -1.194757
vt -5.267472 -2.872142
vt -4.691308 -3.405929
vt -4.070825 -3.414357
vt -3.240498 -1.900586
vt -3.408105 -1.846337
vt -1.767328 -1.949522
vt -1.739632 -1.361786
vt -3.179656 -1.207161
vt -3.248237 -2.469805
vt -1.775067 -2.518741
vt 1.283644 -1.537937
vt 1.275628 -1.402780
vt -1.727944 -1.226897
vt -3.250406 -2.629356
vt -1.777236 -2.678293
vt 1.696391 -1.546297
vt 1.689799 -1.409786
vt 1.267612 -1.267624
vt -3.254079 -2.899515
vt -1.780909 -2.948451
vt 1.291660 -1.673094
vt 1.702984 -1.682809
vt 2.249080 -1.557493
vt 2.244395 -1.419166
vt 1.683208 -1.273274
vt -3.261235 -3.425371
vt -1.796009 -3.445292
vt 1.289829 -1.807827
vt 1.701163 -1.816698
vt 2.253766 -1.695818
vt 4.177231 -1.596549
vt 4.179198 -1.451891
vt 2.239709 -1.280840
vt 1.372716 -3.488371
vt 1.273757 -2.989982
vt 1.285665 -2.114074
vt 1.697026 -2.121028
vt 4.175265 -1.741206
vt 4.181165 -1.307235
vt 1.769016 -3.493759
vt 1.685192 -2.991451
vt 1.278062 -2.673307
vt 1.689471 -2.676761
vt 2.251960 -1.828578
vt 4.173513 -1.870024
vt 2.299681 -3.500973
vt 2.236124 -2.993419
vt 2.240366 -2.681385
vt 2.247858 -2.130340
vt 4.169533 -2.162828
vt 4.150998 -3.526143
vt 4.158147 -3.000287
vt 4.162264 -2.697515
vt 4.734310 -3.534074
vt 4.741460 -3.008218
vn 1.000000 0.000000 0.000000
vn 1.000000 0.000000 0.000000
vn 1.000000 0.000000 0.000000
vn 1.000000 0.000000 0.000000
vn 1.000000 0.000000 0.000000
vn 1.000000 0.000000 0.000000
vn 1.000000 0.000000 0.000000
vn 1.000000 0.000000 0.000000
vn 1.000000 0.000000 0.000000
vn 1.000000 0.000000 0.000000
vn 1.000000 0.000000 0.000000
vn 1.000000 0.000000 0.000000
vn 1.000000 0.000000 0.000000
vn 1.000000 0.000000 0.000000
vn 1.000000 0.000000 0.000000
vn 1.000000 0.000000 0.000000
vn 1.000000 0.000000 0.000000
vn 1.000000 0.000000 0.000000
vn 1.000000 0.000000 0.000000
vn 1.000000 0.000000 0.000000
vn 1.000000 0.000000 0.000000
vn 1.000000 0.000000 0.000000
vn 1.000000 0.000000 0.000000
vn 1.000000 0.000000 0.000000
vn 1.000000 0.000000 0.000000
vn 1.000000 0.000000 0.000000
vn 1.000000 0.000000 0.000000
vn 1.000000 -0.000001 0.000000
vn 1.000000 0.000000 0.000000
vn 1.000000 0.000000 0.000000
vn 1.000000 -0.000001 0.000000
vn 1.000000 -0.000001 0.000000
vn 1.000000 0.000000 0.000000
vn 1.000000 0.000000 0.000000
vn 1.000000 0.000000 0.000000
vn 1.000000 0.000000 0.000000
vn 1.000000 0.000000 0.000000
vn 1.000000 0.000000 0.000000
vn 1.000000 0.000000 0.000000
vn 1.000000 0.000000 0.000000
vn 1.000000 0.000000 0.000000
vn 1.000000 0.000000 0.000000
vn 1.000000 0.000000 0.000000
vn 1.000000 0.000000 0.000000
vn 1.000000 0.000000 0.000000
vn 1.000000 0.000000 0.000000
vn 1.000000 0.000000 0.000000
vn 1.000000 0.000000 0.000000
vn 0.000000 -0.208984 0.977919
vn 0.000000 -0.208987 0.977919
vn 0.002349 -0.209635 0.977777
vn 0.000000 -0.208984 0.977919
vn 0.000000 -0.208984 0.977919
vn 0.002349 -0.209635 0.977777
vn -0.001228 -0.209325 0.977845
vn 0.000000 -0.208984 0.977919
vn -0.001228 -0.209325 0.977845
vn 0.002349 -0.209635 0.977777
vn 0.016041 -0.288487 0.957350
vn -0.016042 -0.288487 0.957350
vn 0.000000 -0.208985 0.977919
vn 0.000000 -0.208985 0.977919
vn 0.000000 -0.208985 0.977919
vn 0.000000 -0.208985 0.977919
vn 0.000000 -0.208985 0.977919
vn 0.000000 -0.208985 0.977919
vn 0.000000 -0.208985 0.977919
vn 0.000000 -0.208986 0.977919
vn 0.000000 -0.208985 0.977919
vn 0.000000 -0.208985 0.977919
vn 0.000000 -0.208985 0.977919
vn 0.000000 -0.208985 0.977919
vn 0.000000 -0.208984 0.977919
vn 0.000000 -0.208984 0.977919
vn 0.000000 -0.208984 0.977919
vn 0.000000 -0.208984 0.977919
vn 0.000000 -0.208985 0.977919
vn 0.000000 -0.208985 0.977919
vn 0.000000 -0.208986 0.977919
vn 0.000000 -0.208985 0.977919
vn 0.000000 -0.208987 0.977919
vn 0.000000 -0.208985 0.977919
vn 0.001340 -0.208085 0.978110
vn 0.002349 -0.209635 0.977777
vn 0.001340 -0.208085 0.978110
vn 0.000000 -0.208985 0.977919
vn 0.000000 -0.208985 0.977919
vn 0.000000 -0.208985 0.977919
vn 0.000000 -0.208985 0.977919
vn 0.000000 -0.208985 0.977919
vn 0.000000 -0.208985 0.977919
vn 0.000000 -0.208985 0.977919
vn 0.000000 -0.208985 0.977919
vn 0.000000 -0.208985 0.977919
vn 0.000000 -0.208985 0.977919
vn 0.000000 -0.208985 0.977919
vn -0.001228 -0.209325 0.977845
vn -0.000840 -0.208421 0.978039
vn 0.000000 -0.208986 0.977919
vn 0.000000 -0.208985 0.977919
vn 0.000000 -0.208984 0.977919
vn -0.001228 -0.209325 0.977845
vn 0.000000 -0.208985 0.977919
vn 0.000000 -0.208984 0.977919
vn 0.002349 -0.209635 0.977777
vn 0.001340 -0.208085 0.978110
vn 0.013377 -0.151078 0.988431
vn 0.016041 -0.288487 0.957350
vn 0.001340 -0.208085 0.978110
vn -0.000840 -0.208421 0.978039
vn -0.013377 -0.151078 0.988431
vn 0.013377 -0.151078 0.988431
vn -0.000840 -0.208421 0.978039
vn -0.001228 -0.209325 0.977845
vn -0.016042 -0.288487 0.957350
vn -0.013377 -0.151078 0.988431
vn 0.000000 -0.208986 0.977919
vn -0.000840 -0.208421 0.978039
vn 0.000000 -0.208985 0.977919
vn 0.000000 -0.208985 0.977919
vn 0.000000 -0.208985 0.977919
vn 0.000000 -0.208985 0.977919
vn 0.000000 -0.208985 0.977919
vn 0.000000 -0.208985 0.977919
vn -0.000100 -0.685308 0.728253
vn -0.000065 -0.492317 0.870416
vn -0.000520 -0.499022 0.866589
vn -0.000871 -0.682217 0.731149
vn 0.000543 -0.682386 0.730992
vn 0.000349 -0.494078 0.869418
vn -0.000065 -0.492317 0.870416
vn -0.000100 -0.685308 0.728253
vn 0.001069 -0.672042 0.740512
vn 0.000604 -0.487794 0.872958
vn 0.000349 -0.494078 0.869418
vn 0.000543 -0.682386 0.730992
vn 0.000000 -0.666065 0.745894
vn 0.000000 -0.486022 0.873947
vn 0.000604 -0.487794 0.872958
vn 0.001069 -0.672042 0.740512
vn 0.000000 -0.666065 0.745894
vn 0.000000 -0.482768 0.875748
vn 0.000000 -0.486022 0.873947
vn 0.000000 -0.666065 0.745894
vn -0.000065 -0.492317 0.870416
vn 0.000000 -0.208984 0.977919
vn 0.000000 -0.208984 0.977919
vn -0.000520 -0.499022 0.866589
vn 0.000349 -0.494078 0.869418
vn 0.000000 -0.208984 0.977919
vn 0.000000 -0.208984 0.977919
vn -0.000065 -0.492317 0.870416
vn 0.000604 -0.487794 0.872958
vn 0.000000 -0.208984 0.977919
vn 0.000000 -0.208984 0.977919
vn 0.000349 -0.494078 0.869418
vn 0.000000 -0.486022 0.873947
vn 0.000000 -0.208984 0.977919
vn 0.000000 -0.208984 0.977919
vn 0.000604 -0.487794 0.872958
vn 0.000000 -0.482768 0.875748
vn 0.000000 -0.208984 0.977919
vn 0.000000 -0.208984 0.977919
vn 0.000000 -0.486022 0.873947
vn 0.000000 -0.208986 0.977919
vn 0.000000 -0.208985 0.977919
vn 0.000000 -0.208985 0.977919
vn 0.000000 -0.208985 0.977919
vn 0.000000 -0.208985 0.977919
vn 0.000000 -0.208986 0.977919
vn 0.000000 -0.208985 0.977919
vn 0.000000 -0.208985 0.977919
vn 0.000000 -0.208984 0.977919
vn 0.000000 -0.208984 0.977919
vn 0.000000 -0.208984 0.977919
vn 0.000000 -0.208983 0.977919
vn -0.000520 -0.499022 0.866589
vn 0.000000 -0.208984 0.977919
vn 0.000000 -0.208983 0.977919
vn -0.000512 -0.494795 0.869010
vn -0.000871 -0.682217 0.731149
vn -0.000520 -0.499022 0.866589
vn -0.000512 -0.494795 0.869010
vn -0.000855 -0.674306 0.738452
vn 0.000000 -0.208985 0.977919
vn 0.000000 -0.208985 0.977919
vn 0.000000 -0.208985 0.977919
vn 0.000000 -0.208985 0.977919
vn 0.000000 -0.208985 0.977919
vn 0.000000 -0.208985 0.977919
vn 0.000000 -0.208985 0.977919
vn 0.000000 -0.208985 0.977919
vn 0.000000 -0.208983 0.977919
vn 0.000000 -0.208984 0.977919
vn 0.000000 -0.208985 0.977919
vn 0.000000 -0.208983 0.977919
vn -0.000512 -0.494795 0.869010
vn 0.000000 -0.208983 0.977919
vn 0.000000 -0.208983 0.977919
vn -0.000502 -0.489242 0.872148
vn -0.000855 -0.674306 0.738452
vn -0.000512 -0.494795 0.869010
vn -0.000502 -0.489242 0.872148
vn -0.000852 -0.672400 0.740188
vn 0.000000 -0.208984 0.977919
vn 0.000000 -0.208986 0.977919
vn 0.000000 -0.208986 0.977919
vn 0.000000 -0.208985 0.977919
vn 0.000000 -0.208985 0.977919
vn 0.000000 -0.208986 0.977919
vn 0.000000 -0.208986 0.977919
vn 0.000000 -0.208985 0.977919
vn 0.000000 -0.208984 0.977919
vn 0.000000 -0.208985 0.977919
vn 0.000000 -0.208985 0.977919
vn 0.000000 -0.208984 0.977919
vn 0.000000 -0.208986 0.977919
vn 0.000000 -0.208985 0.977919
vn 0.000000 -0.208985 0.977919
vn 0.000000 -0.208986 0.977919
vn 0.000000 -0.208986 0.977919
vn 0.000000 -0.208986 0.977919
vn 0.000000 -0.208986 0.977919
vn 0.000000 -0.208986 0.977919
vn 0.000000 -0.208985 0.977919
vn 0.000000 -0.208985 0.977919
vn 0.000000 -0.208985 0.977919
vn 0.000000 -0.208985 0.977919
vn 0.000000 -0.208985 0.977919
vn 0.000000 -0.208985 0.977919
vn 0.000000 -0.208985 0.977919
vn 0.000000 -0.208985 0.977919
vn 0.000000 -0.208985 0.977919
vn 0.000000 -0.208985 0.977919
vn 0.000000 -0.208985 0.977919
vn 0.000000 -0.208985 0.977919
vn 0.000000 -0.208985 0.977919
vn 0.000000 -0.208985 0.977919
vn 0.000000 -0.208985 0.977919
vn 0.000000 -0.208985 0.977919
vn 0.010247 0.977867 0.208978
vn 0.010247 0.977867 0.208978
vn 0.010247 0.977867 0.208978
vn 0.010247 0.977867 0.208978
vn -0.003385 -0.977913 -0.208987
vn -0.003385 -0.977913 -0.208987
vn -0.003385 -0.977913 -0.208987
vn -0.003385 -0.977913 -0.208987
vn 0.006194 0.424598 0.905361
vn 0.006194 0.424598 0.905361
vn 0.006194 0.424598 0.905361
vn 0.006194 0.424598 0.905361
vn -0.001673 -0.665089 0.746762
vn -0.001673 -0.665089 0.746762
vn -0.001673 -0.665089 0.746762
vn -0.001673 -0.665089 0.746762
vn -0.000001 -0.208986 0.977919
vn -0.000001 -0.208986 0.977919
vn -0.000001 -0.208986 0.977919
vn -0.000001 -0.208986 0.977919
vn 0.000001 -0.208983 0.977919
vn 0.000001 -0.208983 0.977919
vn 0.000001 -0.208983 0.977919
vn 0.000001 -0.208983 0.977919
vn -0.010247 -0.977868 -0.208971
vn -0.010247 -0.977868 -0.208971
vn -0.010247 -0.977868 -0.208971
vn -0.010247 -0.977868 -0.208971
vn 0.003385 0.977914 0.208981
vn 0.003385 0.977914 0.208981
vn 0.003385 0.977914 0.208981
vn 0.003385 0.977914 0.208981
vn 0.000000 -0.208985 0.977919
vn 0.000000 -0.208987 0.977919
vn 0.000000 -0.208987 0.977918
vn 0.000000 -0.208985 0.977919
vn 0.000000 -0.208985 0.977919
vn 0.000000 -0.208985 0.977919
vn 0.000000 -0.208985 0.977919
vn 0.000000 -0.208985 0.977919
vn 0.000000 -0.208985 0.977919
vn 0.000000 -0.208985 0.977919
vn 0.000000 -0.208985 0.977919
vn 0.000000 -0.208985 0.977919
vn -1.000000 0.000000 0.000000
vn -1.000000 0.000000 0.000000
vn -1.000000 0.000000 0.000000
vn -1.000000 0.000000 0.000000
vn -1.000000 0.000000 0.000000
vn -1.000000 0.000000 0.000000
vn -1.000000 0.000000 0.000000
vn -1.000000 0.000000 0.000000
vn -1.000000 0.000000 0.000000
vn -1.000000 0.000000 0.000000
vn -1.000000 0.000000 0.000000
vn -1.000000 0.000000 0.000000
vn -1.000000 0.000000 0.000000
vn -1.000000 0.000000 0.000000
vn -1.000000 0.000000 0.000000
vn -1.000000 0.000000 0.000000
vn -1.000000 0.000000 0.000000
vn -1.000000 0.000000 0.000000
vn -1.000000 0.000000 0.000000
vn -1.000000 0.000000 0.000000
vn -1.000000 0.000000 0.000000
vn -1.000000 0.000000 0.000000
vn -1.000000 0.000000 0.000000
vn -1.000000 0.000000 0.000000
vn -1.000000 0.000000 0.000000
vn -1.000000 0.000000 0.000000
vn -1.000000 0.000001 0.000000
vn -1.000000 0.000000 0.000000
vn -1.000000 0.000000 0.000000
vn -1.000000 0.000000 0.000000
vn -1.000000 0.000000 0.000000
vn -1.000000 0.000000 0.000000
vn -1.000000 0.000000 0.000000
vn -1.000000 0.000000 0.000000
vn -1.000000 0.000000 0.000000
vn -1.000000 0.000000 0.000000
vn -1.000000 0.000000 0.000000
vn -1.000000 0.000001 0.000000
vn -1.000000 0.000000 0.000000
vn -1.000000 0.000000 0.000000
vn -1.000000 0.000000 0.000000
vn -1.000000 0.000000 0.000000
vn -1.000000 0.000000 0.000000
vn -1.000000 0.000000 0.000000
s off
g polySurface6
usemtl lambert8SG
f 14/35/1 9/36/2 3/37/3 13/38/4
f 2/47/5 11/46/6 12/50/7 1/51/8
f 4/42/9 10/41/10 11/46/11 2/47/12
f 3/37/13 9/36/14 10/41/15 4/42/16
f 17/43/17 18/44/18 5/40/19 15/39/20
f 6/45/21 5/40/22 18/44/23 16/48/24
f 7/49/25 6/45/26 16/48/27 19/52/28
f 8/53/29 7/49/30 19/52/31 20/54/32
f 15/39/33 5/40/34 9/36/35 14/35/36
f 10/41/37 9/36/38 5/40/39 6/45/40
f 11/46/41 10/41/42 6/45/43 7/49/44
f 12/50/45 11/46/46 7/49/47 8/53/48
f 43/78/49 26/79/50 30/80/51 42/81/52
f 42/81/53 30/80/54 32/84/55 41/85/56
f 32/84/57 30/80/58 62/93/59 63/94/60
f 28/90/61 64/101/62 65/102/63 66/91/64
f 70/134/65 67/133/66 68/139/67 44/140/68
f 71/119/69 69/126/70 67/133/71 70/134/72
f 72/110/73 73/120/74 98/121/75 45/115/76
f 74/141/77 70/134/78 44/140/79 56/142/80
f 26/79/81 29/82/82 75/83/83 30/80/84
f 75/83/85 29/82/86 28/90/87 66/91/88
f 76/118/89 77/125/90 69/126/91 71/119/92
f 79/114/93 78/113/94 76/118/95 71/119/96
f 32/84/97 84/103/98 80/105/99 81/95/100
f 41/85/101 32/84/102 81/95/103 82/96/104
f 30/80/105 75/83/106 83/92/107 62/93/108
f 75/83/109 84/103/110 85/104/111 83/92/112
f 84/103/113 32/84/114 63/94/115 85/104/116
f 80/105/117 84/103/118 86/108/119 87/109/120
f 87/109/121 86/108/122 78/113/123 79/114/124
f 23/117/125 35/111/126 46/116/127 47/124/128
f 24/112/129 36/106/130 35/111/131 23/117/132
f 33/107/133 37/97/134 36/106/135 24/112/136
f 31/99/137 38/87/138 37/97/139 33/107/140
f 21/98/141 39/86/142 38/87/143 31/99/144
f 35/111/145 72/110/146 45/115/147 46/116/148
f 36/106/149 82/96/150 72/110/151 35/111/152
f 37/97/153 41/85/154 82/96/155 36/106/156
f 38/87/157 42/81/158 41/85/159 37/97/160
f 39/86/161 43/78/162 42/81/163 38/87/164
f 44/140/165 68/139/166 88/145/167 48/146/168
f 56/142/169 44/140/170 48/146/171 55/147/172
f 45/115/173 98/121/174 90/129/175 49/122/176
f 46/116/177 45/115/178 49/122/179 50/123/180
f 47/124/181 46/116/182 50/123/183 51/132/184
f 48/146/185 88/145/186 89/150/187 27/151/188
f 55/147/189 48/146/190 27/151/191 54/152/192
f 49/122/193 90/129/194 25/137/195 40/130/196
f 50/123/197 49/122/198 40/130/199 34/131/200
f 51/132/201 50/123/202 34/131/203 22/138/204
f 90/129/205 91/143/206 52/144/207 25/137/208
f 92/19/209 93/20/210 94/21/211 95/22/212
f 73/120/213 96/127/214 97/128/215 98/121/216
f 91/143/217 99/148/218 53/149/219 52/144/220
f 93/20/221 100/23/222 101/24/223 94/21/224
f 96/127/225 102/135/226 103/136/227 97/128/228
f 99/148/229 55/147/230 54/152/231 53/149/232
f 103/136/233 56/142/234 55/147/235 99/148/236
f 102/135/237 74/141/238 56/142/239 103/136/240
f 90/1/241 98/2/242 104/3/243 105/4/244
f 103/5/245 99/6/246 106/7/247 107/8/248
f 105/25/249 104/26/250 108/27/251 109/28/252
f 107/8/253 106/7/254 110/9/255 111/10/256
f 109/28/257 108/27/258 112/29/259 113/30/260
f 111/31/261 110/32/262 114/33/263 115/34/264
f 113/11/265 112/12/266 92/13/267 95/14/268
f 115/15/269 114/16/270 101/17/271 100/18/272
f 29/82/273 26/79/274 57/88/275 58/89/276
f 27/151/277 89/150/278 60/153/279 59/154/280
f 28/90/281 29/82/282 58/89/283 61/100/284
f 117/55/285 116/56/286 119/57/287 120/58/288
f 118/63/289 117/55/290 120/58/291 121/64/292
f 123/67/293 118/63/294 121/64/295 122/68/296
f 127/59/297 128/60/298 116/56/299 117/55/300
f 129/65/301 127/59/302 117/55/303 118/63/304
f 130/69/305 129/65/306 118/63/307 123/67/308
f 120/58/309 119/57/310 124/61/311 125/62/312
f 121/64/313 120/58/314 125/62/315 126/66/316
f 138/70/317 133/71/318 136/72/319 137/73/320
f 132/74/321 131/76/322 134/77/323 135/75/324
f 133/71/325 132/74/326 135/75/327 136/72/328
