# This file uses centimeters as units for non-parametric coordinates.

mtllib Plant3.mtl
g default
v -0.471605 -0.593622 -5.912789
v -0.076714 -0.593622 -5.912789
v -0.471605 0.218008 -5.740272
v -0.076714 0.218008 -5.740272
vt 0.000969 0.001992
vt 0.485572 0.001992
vt 0.485572 0.998008
vt 0.000969 0.998008
vn 0.000000 -0.207912 0.978148
vn 0.000000 -0.207912 0.978148
vn 0.000000 -0.207912 0.978148
vn 0.000000 -0.207912 0.978148
s off
g polySurface11 polySurface9 polySurface4 pCube54
usemtl lambert9SG
f 1/1/1 2/2/2 4/3/3 3/4/4
