# This file uses centimeters as units for non-parametric coordinates.

mtllib Plate.mtl
g default
v 1.585411 1.419514 -5.082458
v 2.413242 1.412915 -5.083869
v 2.413242 1.612427 -5.041233
v 1.585411 1.620723 -5.039460
v 1.585411 0.962166 -5.180196
v 2.413242 0.959426 -5.180782
vt 0.797240 0.998008
vt 0.555153 0.998008
vt 0.547213 0.001992
vt 0.787258 0.001992
vt 0.004888 0.998008
vt 0.001591 0.001992
vn 0.000000 -0.208985 0.977919
vn 0.000000 -0.208986 0.977919
vn 0.000000 -0.208986 0.977919
vn 0.000000 -0.208985 0.977919
vn 0.000000 -0.208986 0.977919
vn 0.000000 -0.208986 0.977919
vn 0.000000 -0.208986 0.977919
vn 0.000000 -0.208986 0.977919
s off
g polySurface15 polySurface6
usemtl lambert8SG
f 4/1/1 1/2/2 2/3/3 3/4/4
f 1/2/5 5/5/6 6/6/7 2/3/8
