# This file uses centimeters as units for non-parametric coordinates.

mtllib SNESController.mtl
g default
v -3.750048 -0.971675 -4.712855
v -3.761564 -0.966488 -4.720239
v -3.776180 -0.965928 -4.720500
v -3.788315 -0.970209 -4.713539
v -3.793333 -0.977695 -4.702016
v -3.789479 -0.987998 -4.686588
v -3.777802 -0.990715 -4.682947
v -3.763185 -0.991276 -4.682686
v -3.751050 -0.986995 -4.689646
v -3.746032 -0.979508 -4.701170
v -3.749621 -0.955565 -4.702203
v -3.761137 -0.950378 -4.709587
v -3.775754 -0.949817 -4.709848
v -3.787888 -0.954098 -4.702887
v -3.792906 -0.961585 -4.691363
v -3.789052 -0.971888 -4.675936
v -3.777375 -0.974605 -4.672294
v -3.762758 -0.975165 -4.672033
v -3.750623 -0.970884 -4.678994
v -3.745606 -0.963398 -4.690518
v -3.769683 -0.978602 -4.701593
v -3.818184 -0.969064 -4.714073
v -3.829700 -0.963876 -4.721457
v -3.844317 -0.963316 -4.721718
v -3.856451 -0.967597 -4.714758
v -3.861469 -0.975084 -4.703234
v -3.857453 -0.982917 -4.691548
v -3.845938 -0.988104 -4.684165
v -3.831321 -0.988664 -4.683904
v -3.819348 -0.986854 -4.687122
v -3.814169 -0.976897 -4.702388
v -3.817757 -0.952954 -4.703421
v -3.829273 -0.947766 -4.710805
v -3.843890 -0.947206 -4.711066
v -3.856024 -0.951487 -4.704105
v -3.861042 -0.958974 -4.692581
v -3.857026 -0.966807 -4.680896
v -3.845511 -0.971994 -4.673513
v -3.830894 -0.972554 -4.673251
v -3.818921 -0.970743 -4.676470
v -3.813742 -0.960787 -4.691736
v -3.837819 -0.975990 -4.702811
v -3.752569 -0.956605 -4.700512
v -3.762356 -0.952196 -4.706787
v -3.769256 -0.962491 -4.690941
v -3.774778 -0.951720 -4.707009
v -3.785091 -0.955358 -4.701094
v -3.789356 -0.961721 -4.691300
v -3.786080 -0.970478 -4.678188
v -3.776156 -0.972787 -4.675094
v -3.763734 -0.973263 -4.674872
v -3.753420 -0.969625 -4.680787
v -3.749156 -0.963262 -4.690581
v -3.856796 -0.963285 -4.686231
v -3.856335 -0.956244 -4.696899
v -3.844510 -0.956697 -4.696687
v -3.844971 -0.963739 -4.686019
v -3.829894 -0.957257 -4.696426
v -3.830354 -0.964299 -4.685758
v -3.818069 -0.957710 -4.696215
v -3.818529 -0.964752 -4.685547
v -3.853930 -0.956705 -4.696297
v -3.854332 -0.962853 -4.686984
v -3.843444 -0.963270 -4.686789
v -3.843041 -0.957123 -4.696102
v -3.831813 -0.963716 -4.686581
v -3.831411 -0.957568 -4.695894
v -3.820925 -0.964133 -4.686387
v -3.820523 -0.957986 -4.695700
v -3.830945 -0.950449 -4.706681
v -3.842576 -0.950003 -4.706889
v -3.843839 -0.969312 -4.677636
v -3.832208 -0.969757 -4.677428
vt 0.769018 0.981520
vt 0.772633 0.974060
vt 0.774139 0.966738
vt 0.753788 0.960778
vt 0.766830 0.932674
vt 0.751882 0.932674
vt 0.801756 0.952458
vt 0.808558 0.966755
vt 0.759958 0.977374
vt 0.782249 0.981714
vt 0.810542 0.932674
vt 0.812139 0.932674
vt 0.768162 0.934731
vt 0.815763 0.932674
vt 0.817575 0.956693
vt 0.817575 0.932674
vt 0.815763 0.956693
vt 0.810542 0.956693
vt 0.796726 0.966432
vt 0.786987 0.966432
vt 0.786534 0.934273
vt 0.814166 0.956693
vt 0.815978 0.980712
vt 0.815978 0.956693
vt 0.814166 0.980712
vt 0.815763 0.980712
vt 0.770227 0.937495
vt 0.775663 0.940587
vt 0.751882 0.932674
vt 0.768642 0.957818
vt 0.771681 0.942699
vt 0.780881 0.944215
vt 0.758051 0.932674
vt 0.779522 0.946653
vt 0.792065 0.932674
vt 0.760941 0.986989
vt 0.655865 0.992456
vt 0.790127 0.932674
vt 0.790158 0.942412
vt 0.810327 0.958930
vt 0.810327 0.932674
vt 0.751882 0.932674
vt 0.813951 0.956693
vt 0.752680 0.932674
vt 0.813951 0.932674
vt 0.812139 0.956693
vt 0.783247 0.940599
vt 0.786153 0.960626
vt 0.786761 0.986147
vt 0.798765 0.951067
vt 0.777248 0.978116
vt 0.751882 0.988081
vt 0.798859 0.989414
vt 0.789487 0.984155
vt 0.808558 0.952007
vt 0.771848 0.966646
vt 0.788336 0.973992
vt 0.785263 0.985325
vt 0.642199 0.956706
vt 0.758051 0.932674
vt 0.780881 0.944215
vt 0.771681 0.942699
vt 0.768642 0.957818
vt 0.786534 0.934273
vt 0.751882 0.932674
vt 0.775663 0.940587
vt 0.770227 0.937495
vt 0.792065 0.932674
vt 0.751882 0.932674
vt 0.786534 0.932674
vt 0.751882 0.932674
vt 0.798494 0.932674
vt 0.801904 0.959690
vt 0.801044 0.971512
vt 0.751882 0.932674
vt 0.751882 0.932674
vt 0.751882 0.932674
vt 0.751882 0.932674
vt 0.751882 0.932674
vt 0.798651 0.932674
vt 0.776342 0.948673
vt 0.768189 0.938009
vt 0.493779 0.644868
vt 0.751882 0.932674
vt 0.751882 0.932674
vt 0.548243 0.664201
vt 0.526987 0.678117
vt 0.786534 0.932674
vt 0.801044 0.971512
vt 0.798494 0.932674
vt 0.549053 0.673910
vt 0.751882 0.932674
vt 0.751882 0.932674
vt 0.798651 0.932674
vt 0.753479 0.932674
vt 0.528686 0.674714
vt 0.544661 0.658164
vt 0.522153 0.658874
vt 0.776342 0.948673
vt 0.796953 0.936077
vt 0.754121 0.932674
vt 0.527089 0.674714
vt 0.811788 0.980712
vt 0.793329 0.958750
vt 0.812139 0.980712
vt 0.753479 0.932674
vt 0.752038 0.932674
vt 0.495414 0.644868
vt 0.542523 0.654761
vt 0.524850 0.674714
vt 0.810542 0.980712
vt 0.813951 0.956693
vt 0.754278 0.932674
vt 0.754121 0.932674
vt 0.793555 0.965844
vt 0.520773 0.661639
vt 0.543281 0.660929
vt 0.550820 0.670369
vt 0.801904 0.959690
vt 0.796726 0.936214
vt 0.798765 0.949981
vt 0.545913 0.664201
vt 0.540704 0.654761
vt 0.493594 0.644868
vt 0.751882 0.932674
vt 0.754212 0.932674
vt 0.751882 0.932674
vt 0.808730 0.982949
vt 0.790158 0.966432
vt 0.798765 0.949981
vt 0.793298 0.976140
vt 0.790127 0.976140
vt 0.774613 0.940598
vt 0.778607 0.967910
vt 0.796726 0.936214
vt 0.787187 0.938148
vt 0.528262 0.667307
vt 0.781798 0.951632
vt 0.527609 0.661833
vt 0.787864 0.970038
vt 0.782884 0.987238
vt 0.787187 0.938148
vt 0.782231 0.981764
vt 0.768706 0.942343
vt 0.815545 0.987074
vt 0.781798 0.951632
vt 0.780375 0.964369
vt 0.793555 0.965844
vt 0.810089 0.984115
vt 0.796953 0.936077
vt 0.751882 0.932674
vt 0.752067 0.932674
vt 0.754212 0.932674
vt 0.754212 0.932674
vt 0.753360 0.932674
vt 0.495257 0.644868
vt 0.752038 0.932674
vt 0.752038 0.932674
vt 0.751882 0.932674
vt 0.752680 0.932674
vt 0.754277 0.932674
vt 0.753360 0.932674
vt 0.752799 0.932674
vt 0.754397 0.932674
vt 0.752067 0.932674
vt 0.771848 0.966646
vt 0.786796 0.960626
vt 0.771738 0.945904
vt 0.812354 0.980712
vt 0.810327 0.956693
vt 0.753479 0.932674
vt 0.783247 0.952730
vt 0.762354 0.960778
vt 0.796569 0.960778
vt 0.815027 0.982739
vt 0.812354 0.956693
vt 0.813951 0.980712
vt 0.753479 0.932674
vt 0.808730 0.956693
vt 0.810327 0.982949
vt 0.753479 0.932674
vt 0.784342 0.946680
vt 0.769941 0.972514
vt 0.783356 0.991192
vt 0.772134 0.943363
vt 0.665848 0.992855
vt 0.644105 0.950838
vt 0.646502 0.985753
vt 0.779522 0.946653
vt 0.790158 0.938541
vt 0.653374 0.993991
vt 0.662800 0.951608
vt 0.629554 0.954928
vt 0.624627 0.990531
vt 0.626213 0.990476
vt 0.657373 0.980761
vt 0.659403 0.942513
vt 0.638425 0.979486
vt 0.634122 0.950438
vt 0.780654 0.944213
vt 0.661450 0.988522
vt 0.663942 0.986987
vt 0.817575 0.956693
vt 0.772134 0.943363
vt 0.758051 0.932674
vt 0.665885 0.942513
vt 0.656459 0.984896
vt 0.817575 0.980712
vt 0.780654 0.944213
vt 0.787488 0.932674
vt 0.626469 0.945832
vt 0.659715 0.942513
vt 0.815763 0.956693
vt 0.758051 0.932674
vt 0.774586 0.949923
vt 0.620589 0.983035
vt 0.625516 0.947432
vt 0.768162 0.958750
vt 0.787488 0.932674
vt 0.769774 0.936832
vt 0.616230 0.990876
vt 0.614644 0.990930
vt 0.762527 0.960778
vt 0.751882 0.960778
vt 0.772775 0.952730
vt 0.774586 0.949923
vt 0.775889 0.940588
vt 0.649297 0.987029
vt 0.618136 0.996744
vt 0.766830 0.960626
vt 0.751882 0.966646
vt 0.769774 0.936832
vt 0.751882 0.932674
vt 0.656318 0.952407
vt 0.654288 0.990655
vt 0.753788 0.972514
vt 0.768189 0.946680
vt 0.775889 0.940588
vt 0.774530 0.950279
vt 0.641510 0.989379
vt 0.662488 0.952407
vt 0.773180 0.950307
vt 0.798324 0.966432
vt 0.751882 0.932674
vt 0.812139 0.956693
vt 0.774530 0.950279
vt 0.790158 0.938541
vt 0.763206 0.972785
vt 0.770907 0.988489
vt 0.751882 0.966646
vt 0.796744 0.986547
vt 0.781116 0.969610
vt 0.786796 0.932674
vt 0.772813 0.982621
vt 0.800350 0.968073
vt 0.770001 0.960626
vt 0.779276 0.946680
vt 0.794837 0.980679
vt 0.769941 0.960778
vt 0.804488 0.974185
vt 0.796953 0.968629
vt 0.799177 0.932674
vt 0.787841 0.932674
vt 0.793298 0.932674
vt 0.800197 0.960806
vt 0.769548 0.952792
vt 0.776425 0.966738
vt 0.762527 0.932674
vt 0.800803 0.950890
vt 0.769151 0.980711
vt 0.772775 0.940599
vt 0.777567 0.977535
vt 0.805199 0.957272
vt 0.796569 0.932674
vt 0.762354 0.932674
vt 0.771200 0.952148
vt 0.801849 0.960162
vt 0.785325 0.983584
vt 0.761865 0.987682
vt 0.806936 0.983147
vt 0.792572 0.974261
vt 0.805473 0.942114
vt 0.798765 0.948948
vt 0.771133 0.969210
vt 0.793329 0.934731
vt 0.801849 0.958841
vt 0.810542 0.956693
vt 0.802388 0.952007
vt 0.812354 0.932674
vt 0.784496 0.980528
vt 0.812354 0.956693
vt 0.796953 0.983546
vt 0.808730 0.932674
vt 0.753788 0.982213
vt 0.808730 0.958930
vt 0.782240 0.974489
vt 0.769548 0.983155
vt 0.800891 0.967985
vt 0.808426 0.973541
vt 0.780890 0.988090
vt 0.773189 0.972386
vt 0.804841 0.942565
vt 0.805473 0.956862
vt 0.751882 0.971107
vt 0.772265 0.981314
vt 0.814166 0.956693
vt 0.770924 0.987388
vt 0.815978 0.932674
vt 0.780342 0.987581
vt 0.815978 0.956693
vt 0.754966 0.981001
vt 0.814166 0.932674
vt 0.802388 0.966755
vt 0.796726 0.942412
vt 0.803976 0.958890
vt 0.777624 0.977687
vn 0.616391 0.422880 -0.664255
vn 0.616391 0.422880 -0.664255
vn 0.616391 0.422880 -0.664255
vn 0.616391 0.422880 -0.664255
vn 0.036008 0.550527 -0.834041
vn 0.036008 0.550527 -0.834041
vn 0.036008 0.550527 -0.834041
vn 0.036008 0.550527 -0.834041
vn -0.361911 -0.507468 0.781983
vn -0.361911 -0.507468 0.781983
vn -0.361911 -0.507468 0.781983
vn -0.361911 -0.507468 0.781983
vn -0.036008 -0.550527 0.834041
vn -0.036008 -0.550527 0.834041
vn -0.036008 -0.550527 0.834041
vn -0.036008 -0.550527 0.834041
vn 0.558146 -0.467886 0.685242
vn 0.558146 -0.467886 0.685242
vn 0.558146 -0.467886 0.685242
vn 0.558146 -0.467886 0.685242
vn 0.939079 -0.206540 0.274722
vn 0.939079 -0.206540 0.274722
vn 0.939079 -0.206540 0.274722
vn 0.939079 -0.206540 0.274722
vn 0.961334 0.133708 -0.240749
vn 0.961334 0.133708 -0.240749
vn 0.961334 0.133708 -0.240749
vn 0.961334 0.133708 -0.240749
vn -0.022102 -0.833941 -0.551412
vn -0.022102 -0.833937 -0.551416
vn -0.022102 -0.833939 -0.551414
vn -0.022102 -0.833939 -0.551414
vn -0.022102 -0.833936 -0.551419
vn -0.022102 -0.833939 -0.551414
vn -0.022102 -0.833940 -0.551412
vn -0.022102 -0.833937 -0.551417
vn -0.022102 -0.833939 -0.551414
vn -0.022103 -0.833942 -0.551409
vn -0.022102 -0.833939 -0.551414
vn 0.022102 0.833939 0.551414
vn 0.022102 0.833939 0.551414
vn 0.022102 0.833939 0.551414
vn 0.022102 0.833940 0.551412
vn 0.022102 0.833940 0.551412
vn 0.022102 0.833939 0.551414
vn 0.022102 0.833939 0.551414
vn 0.022102 0.833939 0.551414
vn 0.022102 0.833938 0.551416
vn 0.022102 0.833938 0.551416
vn 0.022102 0.833939 0.551414
vn 0.036008 0.550527 -0.834041
vn 0.036008 0.550527 -0.834041
vn 0.036008 0.550527 -0.834041
vn 0.036008 0.550527 -0.834041
vn -0.558128 0.467892 -0.685252
vn -0.558128 0.467892 -0.685252
vn -0.558128 0.467892 -0.685252
vn -0.558128 0.467892 -0.685252
vn -0.939079 0.206540 -0.274722
vn -0.939079 0.206540 -0.274722
vn -0.939079 0.206540 -0.274722
vn -0.939079 0.206540 -0.274722
vn -0.961334 -0.133708 0.240749
vn -0.961334 -0.133708 0.240749
vn -0.961334 -0.133708 0.240749
vn -0.961334 -0.133708 0.240749
vn -0.616408 -0.422872 0.664244
vn -0.616408 -0.422872 0.664244
vn -0.616408 -0.422872 0.664244
vn -0.616408 -0.422872 0.664244
vn -0.036008 -0.550527 0.834041
vn -0.036008 -0.550527 0.834041
vn -0.036008 -0.550527 0.834041
vn -0.036008 -0.550527 0.834041
vn 0.293883 -0.532600 0.793706
vn 0.293883 -0.532600 0.793706
vn 0.293883 -0.532600 0.793706
vn 0.293883 -0.532600 0.793706
vn -0.022102 -0.833941 -0.551412
vn -0.022102 -0.833937 -0.551416
vn -0.022102 -0.833939 -0.551414
vn -0.022102 -0.833939 -0.551414
vn -0.022102 -0.833936 -0.551419
vn -0.022102 -0.833939 -0.551414
vn -0.022102 -0.833941 -0.551412
vn -0.022102 -0.833937 -0.551416
vn -0.022102 -0.833939 -0.551414
vn -0.022102 -0.833942 -0.551410
vn -0.022102 -0.833939 -0.551414
vn -0.022103 -0.833945 -0.551405
vn -0.022103 -0.833945 -0.551405
vn -0.022103 -0.833945 -0.551405
vn -0.022103 -0.833945 -0.551405
vn -0.022102 -0.833939 -0.551414
vn -0.022102 -0.833939 -0.551414
vn -0.022102 -0.833939 -0.551414
vn -0.022102 -0.833939 -0.551414
vn -0.022102 -0.833939 -0.551414
vn -0.022102 -0.833939 -0.551414
vn -0.022102 -0.833939 -0.551414
vn -0.022102 -0.833939 -0.551414
vn 0.022102 0.833939 0.551414
vn 0.022102 0.833939 0.551414
vn 0.022102 0.833939 0.551414
vn 0.022102 0.833939 0.551414
vn 0.022102 0.833939 0.551414
vn 0.022102 0.833939 0.551414
vn 0.022102 0.833939 0.551414
vn 0.022102 0.833939 0.551414
vn 0.036008 0.550527 -0.834041
vn 0.036008 0.550527 -0.834041
vn 0.036008 0.550527 -0.834041
vn 0.036008 0.550527 -0.834041
vn -0.036008 -0.550527 0.834041
vn -0.036008 -0.550527 0.834041
vn -0.036008 -0.550527 0.834041
vn -0.036008 -0.550527 0.834041
vn 0.022102 0.833937 0.551417
vn 0.022102 0.833937 0.551417
vn 0.022102 0.833937 0.551417
vn 0.022102 0.833937 0.551417
vn 0.022102 0.833928 0.551431
vn 0.022102 0.833928 0.551431
vn 0.022102 0.833928 0.551431
vn 0.022102 0.833928 0.551431
vn 0.022103 0.833945 0.551405
vn 0.022103 0.833945 0.551405
vn 0.022103 0.833945 0.551405
vn 0.022103 0.833945 0.551405
vn 0.022102 0.833933 0.551422
vn 0.022102 0.833933 0.551422
vn 0.022102 0.833933 0.551422
vn 0.022102 0.833933 0.551422
vn 0.022102 0.833942 0.551410
vn 0.022102 0.833942 0.551410
vn 0.022102 0.833942 0.551410
vn 0.022102 0.833942 0.551410
vn 0.022102 0.833937 0.551417
vn 0.022102 0.833937 0.551417
vn 0.022102 0.833937 0.551417
vn 0.022102 0.833937 0.551417
vn 0.022103 0.833952 0.551395
vn 0.022103 0.833952 0.551395
vn 0.022103 0.833952 0.551395
vn 0.022103 0.833952 0.551395
vn 0.022102 0.833933 0.551422
vn 0.022102 0.833933 0.551422
vn 0.022102 0.833933 0.551422
vn 0.022102 0.833933 0.551422
vn 0.022103 0.833945 0.551405
vn 0.022103 0.833945 0.551405
vn 0.022103 0.833945 0.551405
vn 0.022103 0.833945 0.551405
vn 0.022102 0.833936 0.551418
vn 0.022102 0.833936 0.551418
vn 0.022102 0.833936 0.551418
vn 0.022102 0.833936 0.551418
vn 0.022102 0.833942 0.551410
vn 0.022102 0.833942 0.551410
vn 0.022102 0.833942 0.551410
vn 0.022102 0.833942 0.551410
vn 0.022102 0.833939 0.551414
vn 0.022102 0.833939 0.551414
vn 0.022102 0.833939 0.551414
vn 0.022102 0.833939 0.551414
vn 0.022102 0.833939 0.551414
vn 0.022102 0.833939 0.551414
vn 0.022102 0.833939 0.551414
vn 0.022102 0.833939 0.551414
vn 0.022102 0.833939 0.551414
vn 0.022102 0.833939 0.551414
vn 0.022102 0.833939 0.551414
vn 0.022102 0.833939 0.551414
vn 0.022102 0.833939 0.551414
vn 0.022102 0.833939 0.551414
vn 0.022102 0.833939 0.551414
vn 0.022102 0.833939 0.551414
vn 0.022102 0.833939 0.551414
vn 0.022102 0.833939 0.551414
vn 0.022102 0.833939 0.551414
vn 0.022102 0.833939 0.551414
vn 0.022102 0.833939 0.551414
vn 0.022102 0.833939 0.551414
vn 0.022102 0.833939 0.551414
vn 0.022102 0.833939 0.551414
vn 0.022102 0.833939 0.551414
vn 0.022102 0.833939 0.551414
vn 0.022102 0.833939 0.551414
vn 0.022102 0.833939 0.551414
vn 0.022102 0.833939 0.551414
vn 0.022102 0.833939 0.551414
vn 0.022102 0.833939 0.551414
vn 0.022102 0.833939 0.551414
vn 0.022102 0.833939 0.551414
vn 0.022102 0.833939 0.551414
vn 0.022102 0.833939 0.551414
vn 0.022102 0.833939 0.551414
vn 0.022102 0.833939 0.551414
vn 0.022102 0.833939 0.551414
vn 0.022102 0.833939 0.551414
vn 0.022102 0.833939 0.551414
vn 0.022102 0.833939 0.551414
vn 0.022102 0.833939 0.551414
vn 0.022102 0.833939 0.551414
vn 0.022102 0.833939 0.551414
vn 0.022102 0.833939 0.551414
vn 0.022102 0.833939 0.551414
vn 0.022102 0.833939 0.551414
vn 0.022102 0.833939 0.551414
vn 0.022101 0.833922 0.551439
vn 0.022101 0.833922 0.551439
vn 0.022101 0.833922 0.551439
vn 0.022101 0.833922 0.551439
vn 0.022103 0.833951 0.551396
vn 0.022103 0.833951 0.551396
vn 0.022103 0.833951 0.551396
vn 0.022103 0.833951 0.551396
vn 0.022102 0.833939 0.551414
vn 0.022102 0.833939 0.551414
vn 0.022102 0.833939 0.551414
vn 0.022102 0.833939 0.551414
vn 0.022102 0.833939 0.551414
vn 0.022102 0.833939 0.551414
vn 0.022102 0.833939 0.551414
vn 0.022102 0.833939 0.551414
vn 0.022102 0.833933 0.551423
vn 0.022102 0.833933 0.551423
vn 0.022102 0.833933 0.551423
vn 0.022102 0.833933 0.551423
vn 0.022102 0.833939 0.551414
vn 0.022102 0.833939 0.551414
vn 0.022102 0.833939 0.551414
vn 0.022102 0.833939 0.551414
vn 0.022102 0.833939 0.551414
vn 0.022102 0.833939 0.551414
vn 0.022102 0.833939 0.551414
vn 0.022102 0.833939 0.551414
vn 0.022102 0.833939 0.551414
vn 0.022102 0.833939 0.551414
vn 0.022102 0.833939 0.551414
vn 0.022102 0.833939 0.551414
vn 0.022103 0.833945 0.551405
vn 0.022103 0.833945 0.551405
vn 0.022103 0.833945 0.551405
vn 0.022103 0.833945 0.551405
vn 0.022102 0.833939 0.551414
vn 0.022102 0.833939 0.551414
vn 0.022102 0.833939 0.551414
vn 0.022102 0.833939 0.551414
s off
g initialShadingGroup pCylinder3
usemtl lambert3SG
f 1/11/1 2/12/2 12/245/3 11/18/4
f 2/314/5 3/262/6 13/243/7 12/19/8
f 6/268/9 7/13/10 17/218/11 16/223/12
f 7/312/13 8/14/14 18/213/15 17/22/16
f 8/310/17 9/15/18 19/208/19 18/23/20
f 9/308/21 10/16/22 20/203/23 19/24/24
f 10/306/25 1/17/26 11/26/27 20/25/28
s 1
f 2/2/29 1/316/30 21/297/31
f 3/261/32 2/315/29 21/298/31
f 4/255/33 3/260/32 21/299/31
f 5/249/34 4/254/33 21/300/31
f 6/270/35 5/248/34 21/301/31
f 7/7/36 6/269/35 21/302/31
f 8/8/37 7/313/36 21/303/31
f 9/9/38 8/311/37 21/304/31
f 10/10/39 9/309/38 21/305/31
f 1/1/30 10/307/39 21/36/31
s 2
f 43/188/40 44/240/41 45/198/42
f 44/241/41 46/234/43 45/197/42
f 46/235/43 47/228/44 45/196/42
f 47/229/44 48/221/45 45/195/42
f 48/222/45 49/216/46 45/194/42
f 49/217/46 50/211/47 45/193/42
f 50/212/47 51/206/48 45/192/42
f 51/207/48 52/201/49 45/191/42
f 52/202/49 53/186/50 45/37/42
f 53/187/50 43/59/40 45/199/42
s off
f 23/264/51 24/39/52 34/129/53 33/131/54
f 24/295/55 25/40/56 35/180/57 34/128/58
f 25/293/59 26/41/60 36/170/61 35/179/62
f 26/291/63 27/43/64 37/177/65 36/169/66
f 27/289/67 28/45/68 38/112/69 37/176/70
f 28/287/71 29/46/72 39/105/73 38/111/74
f 29/285/75 30/274/76 40/174/77 39/104/78
s 3
f 23/266/79 22/257/80 42/276/81
f 24/50/82 23/265/79 42/277/81
f 25/51/83 24/296/82 42/278/81
f 26/52/84 25/294/83 42/279/81
f 27/53/85 26/292/84 42/280/81
f 28/54/86 27/290/85 42/281/81
f 29/55/87 28/288/86 42/282/81
f 30/273/88 29/286/87 42/283/81
f 31/252/89 30/272/88 42/284/81
f 22/258/80 31/251/89 42/49/81
s off
f 3/3/90 4/256/91 22/48/92 23/267/93
f 4/4/94 5/250/95 31/56/96 22/259/97
f 5/5/98 6/271/99 30/47/100 31/253/101
f 15/231/102 14/236/103 32/183/104 41/166/105
s 4
f 14/237/106 13/242/107 33/133/108 32/182/109
s off
f 13/20/110 3/263/111 23/38/112 33/132/113
f 6/6/114 16/224/115 40/173/116 30/275/117
f 16/225/118 15/230/119 41/167/120 40/172/121
f 11/34/122 12/246/123 44/239/124 43/189/125
f 12/33/126 13/244/127 46/233/128 44/60/129
f 13/32/130 14/238/131 47/227/132 46/61/133
f 14/31/134 15/232/135 48/220/136 47/62/137
f 15/30/138 16/226/139 49/215/140 48/63/141
f 16/21/142 17/219/143 50/210/144 49/64/145
f 17/29/146 18/214/147 51/205/148 50/65/149
f 18/28/150 19/209/151 52/200/152 51/66/153
f 19/27/154 20/204/155 53/185/156 52/67/157
f 20/35/158 11/247/159 43/190/160 53/68/161
s 5
f 62/83/162 63/156/163 64/108/164 65/124/165
f 65/123/165 64/109/164 66/97/166 67/117/167
f 67/116/167 66/98/166 68/139/168 69/137/169
f 70/91/170 71/122/171 65/86/165 67/118/167
s 4
f 32/57/109 33/134/108 58/147/172 60/140/173
s off
f 34/127/174 35/181/175 55/164/176 56/153/177
f 57/157/178 54/159/179 37/44/180 38/113/181
s 5
f 66/87/166 64/110/164 72/102/182 73/96/183
s off
f 61/145/184 59/149/185 39/103/186 40/175/187
f 35/75/188 36/171/189 54/161/190 55/163/191
f 41/58/192 32/184/193 60/141/194 61/143/195
f 37/178/196 54/160/197 36/42/198
f 41/168/199 61/144/200 40/82/201
f 55/69/202 54/162/203 63/155/204 62/151/205
f 54/77/206 57/158/207 64/107/208 63/84/209
f 56/76/210 55/165/211 62/152/212 65/125/213
f 59/81/214 61/146/215 68/138/216 66/99/217
f 61/70/218 60/142/219 69/136/220 68/88/221
f 60/74/222 58/148/223 67/115/224 69/89/225
f 33/73/226 34/130/227 71/121/228 70/119/229
f 34/71/230 56/154/231 65/126/232 71/92/233
f 58/72/234 33/135/235 70/120/236 67/90/237
f 57/79/238 38/114/239 72/101/240 64/85/241
f 38/78/242 39/106/243 73/95/244 72/93/245
f 39/80/246 59/150/247 66/100/248 73/94/249
